<svg width="46" height="45" viewBox="0 0 46 46" fill="none" xmlns="http://www.w3.org/2000/svg">
<g filter="url(#filter0_d_2712_11029)">
<path d="M23.737 34.5208C31.6128 34.5208 37.9974 28.1362 37.9974 20.2604C37.9974 12.3846 31.6128 6 23.737 6C15.8612 6 9.47656 12.3846 9.47656 20.2604C9.47656 28.1362 15.8612 34.5208 23.737 34.5208Z" fill="url(#paint0_linear_2712_11029)"/>
<path d="M23.7396 33.692C31.1573 33.692 37.1705 27.6788 37.1705 20.261C37.1705 12.8433 31.1573 6.83008 23.7396 6.83008C16.3218 6.83008 10.3086 12.8433 10.3086 20.261C10.3086 27.6788 16.3218 33.692 23.7396 33.692Z" fill="url(#paint1_linear_2712_11029)"/>
<path d="M8 26.9577C8 29.5337 9.67436 31.646 11.7351 31.646C13.7959 31.646 15.496 29.5337 15.496 26.9577C15.496 24.9537 13.2807 21.6101 12.2658 18.1995C12.2398 18.0857 12.176 17.9841 12.0847 17.9113C11.9935 17.8385 11.8802 17.7988 11.7635 17.7988C11.6467 17.7988 11.5334 17.8385 11.4422 17.9113C11.3509 17.9841 11.2871 18.0857 11.2611 18.1995C10.2153 21.5843 8 24.9279 8 26.9577Z" fill="#6FB8DE"/>
<path d="M17.4226 22.5894C19.4855 22.5894 21.1577 20.9171 21.1577 18.8543C21.1577 16.7914 19.4855 15.1191 17.4226 15.1191C15.3598 15.1191 13.6875 16.7914 13.6875 18.8543C13.6875 20.9171 15.3598 22.5894 17.4226 22.5894Z" fill="white"/>
<path d="M17.4207 20.6265C18.3995 20.6265 19.1929 19.8331 19.1929 18.8543C19.1929 17.8755 18.3995 17.082 17.4207 17.082C16.4419 17.082 15.6484 17.8755 15.6484 18.8543C15.6484 19.8331 16.4419 20.6265 17.4207 20.6265Z" fill="black"/>
<path d="M18.6608 18.1536C18.9567 18.1536 19.1966 17.9137 19.1966 17.6178C19.1966 17.3219 18.9567 17.082 18.6608 17.082C18.3649 17.082 18.125 17.3219 18.125 17.6178C18.125 17.9137 18.3649 18.1536 18.6608 18.1536Z" fill="white"/>
<path d="M30.0554 22.5894C32.1183 22.5894 33.7905 20.9171 33.7905 18.8543C33.7905 16.7914 32.1183 15.1191 30.0554 15.1191C27.9926 15.1191 26.3203 16.7914 26.3203 18.8543C26.3203 20.9171 27.9926 22.5894 30.0554 22.5894Z" fill="white"/>
<path d="M30.0574 20.6265C31.0362 20.6265 31.8297 19.8331 31.8297 18.8543C31.8297 17.8755 31.0362 17.082 30.0574 17.082C29.0786 17.082 28.2852 17.8755 28.2852 18.8543C28.2852 19.8331 29.0786 20.6265 30.0574 20.6265Z" fill="black"/>
<path d="M31.2936 18.1536C31.5895 18.1536 31.8294 17.9137 31.8294 17.6178C31.8294 17.3219 31.5895 17.082 31.2936 17.082C30.9977 17.082 30.7578 17.3219 30.7578 17.6178C30.7578 17.9137 30.9977 18.1536 31.2936 18.1536Z" fill="white"/>
<path d="M23.7352 26.6594C22.0908 26.7023 20.4781 27.1217 19.0212 27.8855C18.8929 27.8664 18.7765 27.7995 18.6953 27.6983C18.6141 27.597 18.5741 27.4689 18.5833 27.3394C18.5835 27.2095 18.629 27.0838 18.7121 26.9839C19.3344 26.265 20.1115 25.6963 20.9851 25.3207C21.8586 24.945 22.8059 24.7721 23.7558 24.815C24.705 24.7755 25.6505 24.9552 26.519 25.3403C27.3875 25.7254 28.1555 26.3055 28.7635 27.0355C28.8406 27.128 28.8828 27.2447 28.8828 27.3652C28.8828 27.4857 28.8406 27.6023 28.7635 27.6949C28.7316 27.7349 28.6918 27.768 28.6466 27.7919C28.6014 27.8159 28.5517 27.8302 28.5007 27.834C27.015 27.1048 25.3896 26.7042 23.7352 26.6594Z" fill="#702E09"/>
<path d="M27.5131 27.4266C25.8388 26.9114 25.133 26.6898 23.8759 26.6898C22.5148 26.6682 21.1646 26.9351 19.9141 27.4729V26.7774C19.9134 26.7161 19.9249 26.6552 19.9479 26.5984C19.9709 26.5415 20.0049 26.4898 20.0481 26.4462C20.0912 26.4026 20.1425 26.368 20.1991 26.3444C20.2557 26.3208 20.3164 26.3086 20.3778 26.3086H27.0752C27.1365 26.3086 27.1973 26.3208 27.2539 26.3444C27.3104 26.368 27.3618 26.4026 27.4049 26.4462C27.448 26.4898 27.4821 26.5415 27.5051 26.5984C27.5281 26.6552 27.5396 26.7161 27.5389 26.7774L27.5131 27.4266Z" fill="white"/>
<path d="M34.6307 11.132C34.2952 11.5106 33.8824 11.8128 33.42 12.0181C32.9336 12.2299 32.404 12.3235 31.8745 12.2912C31.3243 12.2514 30.7929 12.0743 30.3289 11.776C30.1018 11.6345 29.8895 11.4705 29.6952 11.2866C29.5209 11.1022 29.3574 10.9078 29.2058 10.7044C29.0821 10.5474 29.0205 10.3503 29.0328 10.1508C29.045 9.95128 29.1303 9.76325 29.2723 9.62255C29.4142 9.48184 29.603 9.3983 29.8026 9.38784C30.0023 9.37737 30.1988 9.44073 30.3547 9.56582L30.4835 9.66371C30.6226 9.77705 30.7411 9.91615 30.8698 10.0243C30.9986 10.1325 31.1223 10.2562 31.2614 10.3283C31.5146 10.5121 31.7991 10.6483 32.1011 10.7301C32.427 10.8154 32.7659 10.8399 33.1006 10.8023C33.4757 10.7611 33.8453 10.6799 34.2031 10.5601H34.2649C34.3116 10.5441 34.361 10.5374 34.4102 10.5407C34.4595 10.5439 34.5076 10.557 34.5517 10.579C34.5959 10.6011 34.6352 10.6318 34.6673 10.6692C34.6994 10.7067 34.7238 10.7501 34.7389 10.7971C34.7496 10.8575 34.7453 10.9196 34.7264 10.978C34.7075 11.0364 34.6747 11.0892 34.6307 11.132Z" fill="#330B06"/>
<path d="M13.2695 10.9871C13.6424 11.0469 14.0207 11.0659 14.3978 11.0437C14.7344 11.0196 15.0641 10.9359 15.3715 10.7964C15.654 10.6651 15.9092 10.4816 16.1237 10.2555C16.2417 10.1414 16.3535 10.021 16.4585 9.89487C16.5719 9.76092 16.6595 9.60636 16.7831 9.47241L16.8913 9.35392C17.0245 9.20858 17.2059 9.1165 17.4018 9.0948C17.5977 9.07309 17.7949 9.12322 17.9567 9.23589C18.1184 9.34856 18.2338 9.51611 18.2814 9.70742C18.3289 9.89873 18.3055 10.1008 18.2153 10.2761C18.1002 10.5026 17.973 10.7228 17.8341 10.9355C17.6734 11.1423 17.4922 11.3321 17.2931 11.5023C16.8865 11.881 16.3871 12.1458 15.8455 12.2699C15.3258 12.3962 14.7835 12.3962 14.2638 12.2699C13.7742 12.1525 13.3156 11.9311 12.9192 11.6208C12.8428 11.5608 12.793 11.4732 12.7804 11.3768C12.7679 11.2805 12.7937 11.1831 12.8522 11.1056C12.8925 11.0528 12.9464 11.0119 13.0081 10.9874C13.0698 10.9629 13.137 10.9557 13.2025 10.9665L13.2695 10.9871Z" fill="#330B06"/>
<g opacity="0.6">
<path opacity="0.6" d="M9.1211 26.9574C9.26872 25.8291 9.50647 24.7145 9.83206 23.6241C10.1302 22.5279 10.6242 21.4947 11.29 20.5742C10.707 21.525 10.2971 22.5715 10.0793 23.6654C9.84314 24.7543 9.69327 25.8603 9.63113 26.9729C9.62916 27.0067 9.62053 27.0398 9.60573 27.0703C9.59093 27.1008 9.57025 27.1281 9.54488 27.1506C9.51952 27.1731 9.48996 27.1904 9.4579 27.2014C9.42584 27.2125 9.39192 27.2171 9.35808 27.215C9.2934 27.2098 9.23305 27.1804 9.18912 27.1326C9.14518 27.0849 9.12089 27.0223 9.1211 26.9574Z" fill="white"/>
</g>
</g>
<defs>
<filter id="filter0_d_2712_11029" x="0" y="0" width="45.9961" height="44.5215" filterUnits="userSpaceOnUse" color-interpolation-filters="sRGB">
<feFlood flood-opacity="0" result="BackgroundImageFix"/>
<feColorMatrix in="SourceAlpha" type="matrix" values="0 0 0 0 0 0 0 0 0 0 0 0 0 0 0 0 0 0 127 0" result="hardAlpha"/>
<feOffset dy="2"/>
<feGaussianBlur stdDeviation="4"/>
<feComposite in2="hardAlpha" operator="out"/>
<feColorMatrix type="matrix" values="0 0 0 0 0 0 0 0 0 0 0 0 0 0 0 0 0 0 0.15 0"/>
<feBlend mode="normal" in2="BackgroundImageFix" result="effect1_dropShadow_2712_11029"/>
<feBlend mode="normal" in="SourceGraphic" in2="effect1_dropShadow_2712_11029" result="shape"/>
</filter>
<linearGradient id="paint0_linear_2712_11029" x1="23.737" y1="25.0877" x2="23.737" y2="0.00835563" gradientUnits="userSpaceOnUse">
<stop offset="0.22" stop-color="#FCCE65"/>
<stop offset="0.41" stop-color="#CDC087"/>
<stop offset="0.83" stop-color="#599FDC"/>
<stop offset="1" stop-color="#2A91FF"/>
</linearGradient>
<linearGradient id="paint1_linear_2712_11029" x1="23.7396" y1="25.0884" x2="23.7396" y2="0.00898048" gradientUnits="userSpaceOnUse">
<stop offset="0.21" stop-color="#FFE59D" stop-opacity="0.7"/>
<stop offset="0.48" stop-color="#BBCABC" stop-opacity="0.8"/>
<stop offset="1" stop-color="#2A91FF"/>
</linearGradient>
</defs>
</svg>
