<svg width="45" height="50" viewBox="0 0 46 46" fill="none" xmlns="http://www.w3.org/2000/svg">
<g filter="url(#filter0_d_2712_10953)">
<path d="M23 36C31.2843 36 38 29.2843 38 21C38 12.7157 31.2843 6 23 6C14.7157 6 8 12.7157 8 21C8 29.2843 14.7157 36 23 36Z" fill="#FCCE65"/>
<path d="M22.9986 35.1281C30.801 35.1281 37.1262 28.803 37.1262 21.0006C37.1262 13.1982 30.801 6.87305 22.9986 6.87305C15.1962 6.87305 8.87109 13.1982 8.87109 21.0006C8.87109 28.803 15.1962 35.1281 22.9986 35.1281Z" fill="#FFE59D"/>
<path d="M16.4679 22.2737C18.6377 22.2737 20.3967 20.5147 20.3967 18.3448C20.3967 16.175 18.6377 14.416 16.4679 14.416C14.2981 14.416 12.5391 16.175 12.5391 18.3448C12.5391 20.5147 14.2981 22.2737 16.4679 22.2737Z" fill="white"/>
<path d="M16.4696 20.2088C17.4992 20.2088 18.3338 19.3742 18.3338 18.3446C18.3338 17.3151 17.4992 16.4805 16.4696 16.4805C15.4401 16.4805 14.6055 17.3151 14.6055 18.3446C14.6055 19.3742 15.4401 20.2088 16.4696 20.2088Z" fill="black"/>
<path d="M17.7706 17.6076C18.0819 17.6076 18.3342 17.3553 18.3342 17.0441C18.3342 16.7328 18.0819 16.4805 17.7706 16.4805C17.4594 16.4805 17.207 16.7328 17.207 17.0441C17.207 17.3553 17.4594 17.6076 17.7706 17.6076Z" fill="white"/>
<path d="M29.757 22.2737C31.9268 22.2737 33.6858 20.5147 33.6858 18.3448C33.6858 16.175 31.9268 14.416 29.757 14.416C27.5871 14.416 25.8281 16.175 25.8281 18.3448C25.8281 20.5147 27.5871 22.2737 29.757 22.2737Z" fill="white"/>
<path d="M29.7587 20.2088C30.7882 20.2088 31.6229 19.3742 31.6229 18.3446C31.6229 17.3151 30.7882 16.4805 29.7587 16.4805C28.7291 16.4805 27.8945 17.3151 27.8945 18.3446C27.8945 19.3742 28.7291 20.2088 29.7587 20.2088Z" fill="black"/>
<path d="M31.0597 17.6076C31.3709 17.6076 31.6233 17.3553 31.6233 17.0441C31.6233 16.7328 31.3709 16.4805 31.0597 16.4805C30.7484 16.4805 30.4961 16.7328 30.4961 17.0441C30.4961 17.3553 30.7484 17.6076 31.0597 17.6076Z" fill="white"/>
<path d="M23.1164 29.4535C24.529 29.4535 25.6742 28.3083 25.6742 26.8957C25.6742 25.4831 24.529 24.3379 23.1164 24.3379C21.7038 24.3379 20.5586 25.4831 20.5586 26.8957C20.5586 28.3083 21.7038 29.4535 23.1164 29.4535Z" fill="#702E09"/>
<path d="M23.1152 28.3867C23.9383 28.3867 24.6055 27.7195 24.6055 26.8965C24.6055 26.0735 23.9383 25.4062 23.1152 25.4062C22.2922 25.4062 21.625 26.0735 21.625 26.8965C21.625 27.7195 22.2922 28.3867 23.1152 28.3867Z" fill="#962A22"/>
<path d="M11.7461 14.4658C11.7997 13.8263 11.9841 13.2047 12.288 12.6395C12.6057 12.0429 13.0585 11.5289 13.6103 11.1385C14.1771 10.7326 14.8367 10.4755 15.5286 10.3906C15.8626 10.345 16.2004 10.3341 16.5366 10.3581C16.8611 10.3929 17.1832 10.4472 17.5012 10.5207C17.7109 10.562 17.8977 10.6804 18.0246 10.8524C18.1516 11.0245 18.2095 11.2379 18.1871 11.4505C18.1647 11.6632 18.0635 11.8597 17.9035 12.0015C17.7434 12.1434 17.5361 12.2202 17.3223 12.2168H17.1652C16.9159 12.2168 16.6775 12.1681 16.439 12.1681C16.2098 12.1543 15.98 12.1543 15.7508 12.1681C15.3092 12.2019 14.8785 12.3215 14.4827 12.5203C14.0712 12.731 13.7034 13.0178 13.3989 13.3657C13.0596 13.7457 12.7683 14.1662 12.5319 14.6175L12.5048 14.6608C12.4639 14.7428 12.3955 14.8078 12.3115 14.8444C12.2275 14.881 12.1334 14.8869 12.0455 14.861C11.9576 14.8352 11.8817 14.7792 11.8309 14.703C11.7801 14.6268 11.7578 14.5351 11.7678 14.4441L11.7461 14.4658Z" fill="#330B06"/>
<path d="M33.7445 14.615C33.5022 14.1666 33.2056 13.7498 32.8612 13.374C32.5492 13.0257 32.1717 12.7421 31.7503 12.5395C31.3544 12.3435 30.9232 12.2292 30.4822 12.2035C30.253 12.1898 30.0232 12.1898 29.794 12.2035C29.5555 12.2035 29.3171 12.2577 29.0678 12.2577H28.9107C28.7 12.2586 28.4963 12.1818 28.3387 12.0419C28.1811 11.902 28.0806 11.709 28.0564 11.4996C28.0323 11.2903 28.0862 11.0794 28.2078 10.9073C28.3294 10.7352 28.5102 10.614 28.7156 10.5669C29.0315 10.4899 29.3518 10.432 29.6748 10.3935C30.0098 10.3584 30.3477 10.3584 30.6827 10.3935C31.3757 10.4697 32.0387 10.7174 32.6119 11.1143C33.1672 11.5009 33.6254 12.011 33.9504 12.6045C34.2518 13.1688 34.4361 13.7881 34.4923 14.4253C34.4999 14.5291 34.4669 14.6319 34.4001 14.7118C34.3334 14.7917 34.2382 14.8425 34.1347 14.8534C34.0588 14.8607 33.9824 14.8456 33.915 14.81C33.8475 14.7744 33.792 14.7198 33.7553 14.6529L33.7445 14.615Z" fill="#330B06"/>
</g>
<defs>
<filter id="filter0_d_2712_10953" x="0" y="0" width="46" height="46" filterUnits="userSpaceOnUse" color-interpolation-filters="sRGB">
<feFlood flood-opacity="0" result="BackgroundImageFix"/>
<feColorMatrix in="SourceAlpha" type="matrix" values="0 0 0 0 0 0 0 0 0 0 0 0 0 0 0 0 0 0 127 0" result="hardAlpha"/>
<feOffset dy="2"/>
<feGaussianBlur stdDeviation="4"/>
<feComposite in2="hardAlpha" operator="out"/>
<feColorMatrix type="matrix" values="0 0 0 0 0 0 0 0 0 0 0 0 0 0 0 0 0 0 0.15 0"/>
<feBlend mode="normal" in2="BackgroundImageFix" result="effect1_dropShadow_2712_10953"/>
<feBlend mode="normal" in="SourceGraphic" in2="effect1_dropShadow_2712_10953" result="shape"/>
</filter>
</defs>
</svg>
