<svg width="45" height="50" viewBox="0 0 46 46" fill="none" xmlns="http://www.w3.org/2000/svg">
<g filter="url(#filter0_d_2712_10893)">
<path d="M22.6128 33.3663C30.1698 33.3663 36.296 27.2401 36.296 19.6831C36.296 12.1262 30.1698 6 22.6128 6C15.0558 6 8.92969 12.1262 8.92969 19.6831C8.92969 27.2401 15.0558 33.3663 22.6128 33.3663Z" fill="#FCCE65"/>
<path d="M22.6138 32.5714C29.7313 32.5714 35.5011 26.8016 35.5011 19.6841C35.5011 12.5667 29.7313 6.79688 22.6138 6.79688C15.4964 6.79688 9.72656 12.5667 9.72656 19.6841C9.72656 26.8016 15.4964 32.5714 22.6138 32.5714Z" fill="#FFE59D"/>
<path d="M22.7732 22.9648C25.0323 22.9718 27.2878 23.147 29.5209 23.4888C29.7073 23.51 29.8779 23.6039 29.9955 23.7502C30.1131 23.8964 30.1681 24.0832 30.1487 24.2699C30.1427 24.451 30.0766 24.6249 29.9608 24.7642C29.0265 25.8864 26.8712 27.9082 22.7337 27.9082C18.5961 27.9082 16.5496 25.8666 15.5658 24.7296C15.4575 24.5952 15.3984 24.4277 15.3984 24.2551C15.3984 24.0824 15.4575 23.9149 15.5658 23.7805C15.6116 23.7236 15.6686 23.6767 15.7332 23.6427C15.7978 23.6087 15.8687 23.5883 15.9415 23.5828C18.1981 23.1911 20.483 22.9845 22.7732 22.9648Z" fill="#702E09"/>
<path d="M22.7452 27.8946C25.3033 27.8946 27.3771 27.2151 27.3771 26.377C27.3771 25.5388 25.3033 24.8594 22.7452 24.8594C20.1871 24.8594 18.1133 25.5388 18.1133 26.377C18.1133 27.2151 20.1871 27.8946 22.7452 27.8946Z" fill="#F28876"/>
<path d="M17.5547 23.3275C21.1642 22.8518 24.8205 22.8518 28.43 23.3275V23.55C28.4287 23.7266 28.358 23.8955 28.2331 24.0204C28.1083 24.1453 27.9393 24.216 27.7627 24.2173H18.222C18.045 24.2173 17.8753 24.147 17.7501 24.0218C17.625 23.8967 17.5547 23.727 17.5547 23.55V23.3275Z" fill="white"/>
<path d="M13.7806 15.2489C13.9488 14.6888 14.2297 14.169 14.6061 13.7214C15.0065 13.2445 15.5149 12.8699 16.0891 12.6289C16.6717 12.3736 17.309 12.2683 17.9428 12.3224C18.2503 12.347 18.5548 12.3999 18.8524 12.4806C19.1342 12.5745 19.4061 12.6882 19.678 12.8069C19.8546 12.8873 19.9952 13.0303 20.0728 13.2083C20.1503 13.3862 20.1592 13.5866 20.0978 13.7707C20.0364 13.9549 19.9091 14.1098 19.7403 14.2056C19.5715 14.3015 19.3732 14.3315 19.1836 14.2899L19.0452 14.2602C18.8228 14.2157 18.6151 14.1267 18.4075 14.0822C18.2025 14.0325 17.9944 13.9961 17.7847 13.9735C17.387 13.9145 16.9815 13.9381 16.5933 14.0427C16.1799 14.1518 15.7908 14.3379 15.4465 14.5914C15.0811 14.8701 14.7493 15.1902 14.4578 15.5455L14.4281 15.5801C14.3671 15.649 14.2823 15.6924 14.1906 15.7016C14.099 15.7107 14.0073 15.685 13.9338 15.6295C13.8741 15.5878 13.8278 15.5295 13.8006 15.462C13.7734 15.3944 13.7664 15.3203 13.7806 15.2489Z" fill="#330B06"/>
<path d="M31.5665 15.5504C31.2761 15.1942 30.9442 14.8739 30.5779 14.5964C30.2263 14.3472 29.8303 14.1677 29.4112 14.0674C29.0201 13.9524 28.6093 13.9204 28.2051 13.9735C27.9952 13.9957 27.7872 14.0321 27.5822 14.0822C27.3746 14.1267 27.167 14.2157 26.9445 14.2602L26.8061 14.2899C26.6165 14.3315 26.4182 14.3015 26.2494 14.2056C26.0806 14.1098 25.9533 13.9549 25.8919 13.7707C25.8305 13.5866 25.8394 13.3862 25.917 13.2083C25.9945 13.0303 26.1351 12.8873 26.3118 12.8069C26.5812 12.6841 26.8567 12.5752 27.1373 12.4806C27.4334 12.4003 27.7362 12.3474 28.0419 12.3224C28.6774 12.2683 29.3162 12.3736 29.9006 12.6289C30.4662 12.8728 30.9659 13.2472 31.3589 13.7214C31.7389 14.1665 32.0203 14.6871 32.1845 15.2489C32.2106 15.3284 32.2079 15.4146 32.1769 15.4923C32.1458 15.57 32.0883 15.6343 32.0145 15.6738C31.9407 15.7134 31.8554 15.7257 31.7735 15.7085C31.6915 15.6914 31.6183 15.6459 31.5665 15.5801V15.5504Z" fill="#330B06"/>
<path d="M20.7377 18.2889C20.235 17.9933 19.7093 17.7387 19.1657 17.5277C18.6607 17.3278 18.1263 17.2126 17.5839 17.1866C17.4523 17.1742 17.3199 17.1742 17.1884 17.1866C17.0559 17.1841 16.9235 17.1941 16.7929 17.2162C16.6644 17.2409 16.5309 17.2558 16.3975 17.2755C16.264 17.2953 16.1355 17.3546 15.997 17.3843C15.8592 17.4121 15.7249 17.4552 15.5966 17.5128L15.1814 17.6611C14.9046 17.7699 14.6426 17.9182 14.3311 18.022H14.2768C14.2014 18.0523 14.118 18.0563 14.0401 18.0333C13.9622 18.0104 13.8943 17.9618 13.8474 17.8955C13.8006 17.8292 13.7774 17.749 13.7818 17.6679C13.7861 17.5868 13.8177 17.5095 13.8714 17.4486C14.0876 17.1744 14.3257 16.9181 14.5833 16.6823C14.8593 16.452 15.1612 16.2545 15.4829 16.0941C16.1552 15.7488 16.9089 15.5932 17.6629 15.6442C18.4089 15.6869 19.1317 15.9183 19.7639 16.3165C20.3783 16.6825 20.8955 17.1912 21.2716 17.7995C21.3124 17.8685 21.3291 17.949 21.319 18.0285C21.309 18.108 21.2728 18.1818 21.2162 18.2385C21.1595 18.2951 21.0857 18.3313 21.0062 18.3413C20.9267 18.3514 20.8462 18.3347 20.7772 18.2939L20.7377 18.2889Z" fill="black"/>
<path d="M24.7471 17.8193C25.1329 17.1964 25.6614 16.6743 26.2889 16.2961C26.9164 15.9179 27.6248 15.6944 28.3558 15.6442C29.1082 15.5934 29.8603 15.7489 30.5308 16.094C30.8548 16.2533 31.1585 16.4508 31.4355 16.6823C31.693 16.9181 31.9311 17.1743 32.1473 17.4485C32.2028 17.5228 32.2276 17.6155 32.2165 17.7075C32.2055 17.7996 32.1595 17.8838 32.088 17.9428C32.0416 17.9805 31.9864 18.0057 31.9276 18.0161C31.8688 18.0265 31.8083 18.0217 31.7518 18.0022L31.6678 18.0219C31.3613 17.9181 31.0993 17.7698 30.8225 17.6611L30.4072 17.5128C30.2787 17.4558 30.1445 17.4127 30.0068 17.3842C29.8684 17.3546 29.7399 17.3051 29.6064 17.2755C29.473 17.2458 29.3395 17.2409 29.211 17.2162C29.0803 17.1942 28.9479 17.1843 28.8155 17.1865C28.684 17.1742 28.5516 17.1742 28.42 17.1865C27.8776 17.2125 27.3431 17.3278 26.8382 17.5276C26.2857 17.7364 25.7516 17.9911 25.2415 18.2889L25.197 18.3136C25.128 18.3544 25.0475 18.3711 24.968 18.361C24.8886 18.351 24.8147 18.3148 24.758 18.2582C24.7014 18.2016 24.6652 18.1277 24.6552 18.0482C24.6452 17.9687 24.6618 17.8882 24.7026 17.8193H24.7471Z" fill="black"/>
<path d="M32.9983 26.1236C33.7398 27.4633 35.2377 28.0515 36.5773 27.31C37.2196 26.952 37.6935 26.3536 37.8946 25.6463C38.0958 24.939 38.0078 24.1807 37.65 23.5383C36.9085 22.1986 31.2237 17.8238 31.9602 19.1585C33.3098 21.5807 32.2568 24.784 32.9983 26.1236Z" fill="#6FB8DE"/>
<g opacity="0.6">
<path opacity="0.6" d="M33.8812 20.8008C34.5873 21.0735 35.2203 21.5067 35.73 22.0663C35.9846 22.3422 36.2099 22.6437 36.4023 22.966C36.6159 23.2969 36.7511 23.6723 36.7978 24.0634C36.8 24.068 36.8011 24.0731 36.8011 24.0782C36.8011 24.0833 36.8 24.0884 36.7978 24.093C36.794 24.0952 36.7898 24.0964 36.7854 24.0964C36.7811 24.0964 36.7768 24.0952 36.7731 24.093C36.5845 23.7735 36.3642 23.4738 36.1156 23.1983C35.8783 22.9215 35.6213 22.6545 35.384 22.3925C34.8897 21.8587 34.3953 21.3396 33.8516 20.8354V20.8057C33.8516 20.8057 33.8516 20.8057 33.8763 20.8057L33.8812 20.8008Z" fill="white"/>
</g>
<path d="M13.0021 26.1236C12.2557 27.4633 10.7628 28.0515 9.42313 27.31C8.7808 26.952 8.30695 26.3536 8.10579 25.6463C7.90462 24.939 7.99262 24.1807 8.35043 23.5383C9.09193 22.1986 14.7768 17.8238 14.0402 19.1585C12.6907 21.5807 13.7436 24.784 13.0021 26.1236Z" fill="#6FB8DE"/>
</g>
<defs>
<filter id="filter0_d_2712_10893" x="0" y="0" width="46" height="43.3672" filterUnits="userSpaceOnUse" color-interpolation-filters="sRGB">
<feFlood flood-opacity="0" result="BackgroundImageFix"/>
<feColorMatrix in="SourceAlpha" type="matrix" values="0 0 0 0 0 0 0 0 0 0 0 0 0 0 0 0 0 0 127 0" result="hardAlpha"/>
<feOffset dy="2"/>
<feGaussianBlur stdDeviation="4"/>
<feComposite in2="hardAlpha" operator="out"/>
<feColorMatrix type="matrix" values="0 0 0 0 0 0 0 0 0 0 0 0 0 0 0 0 0 0 0.15 0"/>
<feBlend mode="normal" in2="BackgroundImageFix" result="effect1_dropShadow_2712_10893"/>
<feBlend mode="normal" in="SourceGraphic" in2="effect1_dropShadow_2712_10893" result="shape"/>
</filter>
</defs>
</svg>
