<svg width="45" height="50" viewBox="0 0 46 46" fill="none" xmlns="http://www.w3.org/2000/svg">
<g filter="url(#filter0_d_2712_10863)">
<path d="M23 36C31.2843 36 38 29.2843 38 21C38 12.7157 31.2843 6 23 6C14.7157 6 8 12.7157 8 21C8 29.2843 14.7157 36 23 36Z" fill="#FCCE65"/>
<path d="M22.9986 35.1281C30.801 35.1281 37.1262 28.803 37.1262 21.0006C37.1262 13.1982 30.801 6.87305 22.9986 6.87305C15.1962 6.87305 8.87109 13.1982 8.87109 21.0006C8.87109 28.803 15.1962 35.1281 22.9986 35.1281Z" fill="#FFE59D"/>
<path d="M23.0012 24.4043C25.4769 24.4029 27.9493 24.584 30.3983 24.9462C30.5029 24.957 30.6044 24.9885 30.6967 25.0389C30.789 25.0893 30.8704 25.1577 30.936 25.2399C31.0016 25.3222 31.0501 25.4167 31.0788 25.5179C31.1074 25.6192 31.1155 25.7251 31.1027 25.8295C31.0942 26.0276 31.022 26.2177 30.8968 26.3714C29.8564 27.5961 27.4936 29.7963 22.9741 29.7963C18.4546 29.7963 16.1949 27.5582 15.1165 26.3064C14.9981 26.1599 14.9336 25.9772 14.9336 25.7889C14.9336 25.6005 14.9981 25.4179 15.1165 25.2714C15.1647 25.2069 15.2267 25.154 15.2979 25.1165C15.3692 25.079 15.4479 25.0579 15.5283 25.0546C17.9975 24.6352 20.4967 24.4177 23.0012 24.4043Z" fill="#702E09"/>
<path d="M14.7342 21.1195C15.5037 20.5288 16.3111 20.0356 17.1023 19.5208C17.4925 19.2607 17.8827 19.0223 18.2295 18.7676C18.3921 18.6375 18.5601 18.5129 18.6739 18.3991C18.7328 18.3507 18.7824 18.2919 18.8202 18.2257C18.8202 18.2528 18.8202 18.3178 18.8202 18.3232C18.8202 18.3286 18.8202 18.3232 18.7822 18.2636C18.6794 18.1322 18.559 18.0156 18.4246 17.9168C18.1157 17.6567 17.7255 17.4074 17.3408 17.1419C16.5418 16.6267 15.7695 16.0715 15.0268 15.4782C14.9504 15.412 14.9018 15.3194 14.8908 15.2189C14.8797 15.1185 14.907 15.0175 14.9672 14.9363C15.0189 14.8762 15.0865 14.8321 15.1624 14.809C15.2382 14.786 15.319 14.785 15.3953 14.8062C16.3257 15.0955 17.2317 15.4579 18.1049 15.8901C18.5648 16.1121 19.0069 16.3693 19.4271 16.6596C19.6762 16.8405 19.9019 17.0517 20.0991 17.2882C20.2347 17.449 20.3411 17.6325 20.4134 17.8301C20.4995 18.087 20.5127 18.3628 20.4513 18.6267C20.3447 19.0164 20.1216 19.3643 19.8119 19.6238C19.6029 19.8133 19.376 19.982 19.1345 20.1278C18.705 20.3852 18.2577 20.6116 17.796 20.8052C16.9194 21.2117 16.0137 21.5522 15.0864 21.8239C14.9851 21.8525 14.8766 21.8402 14.7844 21.7895C14.6921 21.7388 14.6235 21.6538 14.5933 21.553C14.5715 21.4749 14.5732 21.3921 14.5983 21.3149C14.6234 21.2378 14.6706 21.1698 14.7342 21.1195Z" fill="black"/>
<path d="M30.9076 21.8183C29.9809 21.5448 29.0753 21.2043 28.198 20.7995C27.7393 20.5986 27.2956 20.365 26.8703 20.1005C26.627 19.9574 26.3999 19.7885 26.193 19.5965C25.8832 19.337 25.6601 18.9891 25.5535 18.5994C25.4869 18.336 25.5001 18.0587 25.5914 17.8028C25.662 17.6055 25.7665 17.4221 25.9003 17.2609C26.0993 17.0241 26.3268 16.813 26.5777 16.6323C26.9972 16.3409 27.4394 16.0836 27.9 15.8627C28.7723 15.4287 29.6785 15.0663 30.6095 14.7789C30.7115 14.7502 30.8208 14.7624 30.9139 14.813C31.007 14.8636 31.0767 14.9486 31.1081 15.0499C31.1288 15.1254 31.1276 15.2053 31.1046 15.2802C31.0815 15.355 31.0376 15.4218 30.978 15.4726C30.2334 16.0659 29.4593 16.6212 28.6586 17.1362C28.2793 17.4018 27.8945 17.6781 27.5748 17.9112C27.4404 18.0099 27.32 18.1266 27.2172 18.258C27.1792 18.3013 27.1684 18.3338 27.1792 18.3176C27.1901 18.3013 27.1792 18.2471 27.1792 18.22C27.217 18.2863 27.2666 18.3451 27.3255 18.3935C27.4665 18.5247 27.6148 18.6478 27.7699 18.7619C28.1167 19.0166 28.5069 19.2551 28.8971 19.5152C29.6828 20.0138 30.5228 20.5231 31.2598 21.1138C31.3398 21.177 31.3924 21.2686 31.4065 21.3695C31.4207 21.4705 31.3953 21.573 31.3357 21.6557C31.2894 21.7233 31.2236 21.7751 31.1471 21.8041C31.0706 21.8332 30.987 21.8381 30.9076 21.8183Z" fill="black"/>
<path d="M22.9722 29.7941C25.7765 29.7941 28.0499 29.0493 28.0499 28.1305C28.0499 27.2116 25.7765 26.4668 22.9722 26.4668C20.1679 26.4668 17.8945 27.2116 17.8945 28.1305C17.8945 29.0493 20.1679 29.7941 22.9722 29.7941Z" fill="#F28876"/>
<path d="M17.2813 24.7877C21.238 24.2635 25.2465 24.2635 29.2032 24.7877V25.0316C29.2032 25.1276 29.1843 25.2228 29.1475 25.3115C29.1108 25.4003 29.0569 25.4809 28.989 25.5489C28.921 25.6168 28.8404 25.6707 28.7516 25.7074C28.6629 25.7442 28.5677 25.7631 28.4717 25.7631H18.0128C17.9166 25.7639 17.8211 25.7454 17.732 25.7089C17.6429 25.6724 17.562 25.6185 17.4939 25.5505C17.4259 25.4824 17.372 25.4015 17.3355 25.3124C17.299 25.2233 17.2805 25.1278 17.2813 25.0316V24.7877Z" fill="white"/>
</g>
<defs>
<filter id="filter0_d_2712_10863" x="0" y="0" width="46" height="46" filterUnits="userSpaceOnUse" color-interpolation-filters="sRGB">
<feFlood flood-opacity="0" result="BackgroundImageFix"/>
<feColorMatrix in="SourceAlpha" type="matrix" values="0 0 0 0 0 0 0 0 0 0 0 0 0 0 0 0 0 0 127 0" result="hardAlpha"/>
<feOffset dy="2"/>
<feGaussianBlur stdDeviation="4"/>
<feComposite in2="hardAlpha" operator="out"/>
<feColorMatrix type="matrix" values="0 0 0 0 0 0 0 0 0 0 0 0 0 0 0 0 0 0 0.15 0"/>
<feBlend mode="normal" in2="BackgroundImageFix" result="effect1_dropShadow_2712_10863"/>
<feBlend mode="normal" in="SourceGraphic" in2="effect1_dropShadow_2712_10863" result="shape"/>
</filter>
</defs>
</svg>
