<svg width="45" height="50" viewBox="0 0 46 46" fill="none" xmlns="http://www.w3.org/2000/svg">
<g filter="url(#filter0_d_2712_10850)">
<path d="M23 36C31.2843 36 38 29.2843 38 21C38 12.7157 31.2843 6 23 6C14.7157 6 8 12.7157 8 21C8 29.2843 14.7157 36 23 36Z" fill="#FCCE65"/>
<path d="M22.9986 35.1281C30.801 35.1281 37.1262 28.803 37.1262 21.0006C37.1262 13.1982 30.801 6.87305 22.9986 6.87305C15.1962 6.87305 8.87109 13.1982 8.87109 21.0006C8.87109 28.803 15.1962 35.1281 22.9986 35.1281Z" fill="#FFE59D"/>
<path d="M23.3865 25.2385C21.8962 25.2385 20.574 26.4578 20.1079 26.9401C19.8803 27.1839 19.6094 26.7558 19.6094 26.0947C19.6116 25.862 19.6444 25.6306 19.7069 25.4065C20.1838 23.9108 21.2893 18.6543 23.4027 18.6543C25.5162 18.6543 26.5729 23.9596 27.0714 25.504C27.1852 25.9246 27.1852 26.3678 27.0714 26.7883C27.0227 26.9563 26.9522 27.043 26.8818 27.0539C26.8113 27.0647 25.2452 25.2385 23.3865 25.2385Z" fill="#702E09"/>
<path d="M23.3833 22.002C22.4241 22.002 21.8768 23.9257 21.6004 24.8253C21.4866 25.1775 21.6004 25.714 21.7738 25.6382C22.2856 25.3971 22.836 25.2485 23.3996 25.1992C23.9639 25.2479 24.5147 25.3984 25.0253 25.6436C25.1987 25.714 25.3125 25.1775 25.2041 24.8253C24.8844 23.9311 24.3371 22.002 23.3833 22.002Z" fill="#EE808A"/>
<path d="M12.0136 11.9938C12.1968 11.3776 12.5048 10.8058 12.9186 10.3139C13.3587 9.79227 13.9157 9.38193 14.5443 9.11625C15.1835 8.83805 15.8821 8.72441 16.5765 8.78569C16.9157 8.8096 17.2515 8.8677 17.579 8.9591C17.8868 9.06229 18.1889 9.18168 18.484 9.31676C18.5908 9.35234 18.6894 9.4086 18.7744 9.48232C18.8595 9.55605 18.9291 9.64579 18.9794 9.74643C19.0297 9.84707 19.0598 9.95664 19.0677 10.0689C19.0757 10.1811 19.0615 10.2938 19.0259 10.4006C18.9903 10.5073 18.9341 10.606 18.8603 10.691C18.7866 10.776 18.6969 10.8457 18.5962 10.896C18.4956 10.9463 18.386 10.9763 18.2738 10.9843C18.1616 10.9923 18.0488 10.9781 17.9421 10.9425L17.7904 10.91C17.5465 10.8612 17.3189 10.7691 17.0859 10.7149C16.863 10.6599 16.6367 10.62 16.4085 10.5957C15.9703 10.5356 15.5245 10.5632 15.0971 10.6769C14.6451 10.7954 14.2202 10.9996 13.8453 11.2785C13.4448 11.5819 13.081 11.9311 12.7615 12.3189L12.7289 12.3623C12.662 12.4382 12.5685 12.4855 12.4677 12.4946C12.3669 12.5037 12.2665 12.4738 12.187 12.411C12.1184 12.3681 12.0649 12.3048 12.0338 12.2301C12.0027 12.1553 11.9957 12.0727 12.0136 11.9938Z" fill="#330B06"/>
<path d="M33.6858 12.3293C33.3674 11.9405 33.0035 11.5912 32.602 11.2889C32.2271 11.01 31.8021 10.8058 31.3502 10.6873C30.9257 10.5681 30.4817 10.5349 30.0442 10.5898C29.8142 10.6142 29.5861 10.654 29.3614 10.709C29.1284 10.7632 28.9062 10.8553 28.6623 10.9041L28.5106 10.9366C28.295 11.0085 28.0597 10.9918 27.8565 10.8901C27.6532 10.7885 27.4986 10.6103 27.4268 10.3947C27.3549 10.1791 27.3716 9.94382 27.4733 9.74057C27.5749 9.53732 27.7531 9.38276 27.9687 9.3109C28.2631 9.17402 28.5653 9.05459 28.8737 8.95324C29.1977 8.86265 29.5299 8.80456 29.8654 8.77983C30.5615 8.71856 31.2619 8.83218 31.9029 9.11039C32.5316 9.37607 33.0886 9.7864 33.5287 10.308C33.9277 10.8036 34.2177 11.3779 34.3795 11.9933C34.3945 12.0424 34.3997 12.094 34.3947 12.1451C34.3898 12.1963 34.3748 12.2459 34.3507 12.2912C34.3265 12.3365 34.2936 12.3766 34.2539 12.4092C34.2142 12.4418 34.1685 12.4662 34.1193 12.4811C34.0451 12.502 33.9665 12.5014 33.8926 12.4793C33.8187 12.4573 33.7526 12.4146 33.7021 12.3564L33.6858 12.3293Z" fill="#330B06"/>
<path d="M19.2801 13.7598H14.3867V35.4794H19.2801V13.7598Z" fill="#6FB8DE"/>
<path d="M32.3817 13.7598H27.4883V35.474H32.3817V13.7598Z" fill="#6FB8DE"/>
<path d="M20.4029 15.8414C19.8457 15.5105 19.2642 15.2224 18.6634 14.9797C18.1072 14.7632 17.5199 14.6369 16.9238 14.6058C16.7815 14.5923 16.6381 14.5923 16.4957 14.6058C16.3503 14.6021 16.2048 14.6148 16.0622 14.6438L15.6233 14.7034C15.4824 14.7359 15.3361 14.7955 15.1897 14.8226C15.0371 14.8539 14.8882 14.9011 14.7454 14.9635L14.2956 15.1315C13.9921 15.2507 13.6995 15.4078 13.3635 15.5216H13.2985C13.2494 15.5386 13.1975 15.5455 13.1457 15.5421C13.0939 15.5387 13.0433 15.525 12.9968 15.5018C12.9504 15.4785 12.9091 15.4463 12.8753 15.4069C12.8415 15.3675 12.8158 15.3218 12.7999 15.2724C12.7774 15.2106 12.7716 15.1441 12.783 15.0794C12.7944 15.0147 12.8227 14.9542 12.865 14.9039C13.099 14.5991 13.3602 14.3161 13.6453 14.0585C13.953 13.8049 14.2895 13.5884 14.6478 13.4136C15.3829 13.0353 16.2074 12.8648 17.0322 12.9205C17.834 12.9734 18.6116 13.2174 19.2998 13.6322C19.988 14.047 20.5669 14.6206 20.9882 15.3049C21.0419 15.3947 21.0578 15.5023 21.0324 15.6038C21.007 15.7054 20.9424 15.7928 20.8527 15.8468C20.7909 15.8825 20.7208 15.9012 20.6495 15.9012C20.5781 15.9012 20.508 15.8825 20.4462 15.8468L20.4029 15.8414Z" fill="black"/>
<path d="M25.8553 15.3262C26.2765 14.6419 26.8554 14.0684 27.5437 13.6536C28.2319 13.2388 29.0094 12.9947 29.8112 12.9418C30.6395 12.8764 31.4698 13.0395 32.2119 13.4133C32.5655 13.5905 32.8982 13.8068 33.2036 14.0582C33.4859 14.3186 33.7468 14.6013 33.9839 14.9035C34.0447 14.9849 34.0719 15.0866 34.0598 15.1875C34.0477 15.2884 33.9972 15.3808 33.9189 15.4454C33.8672 15.4872 33.8058 15.5151 33.7403 15.5265C33.6749 15.5379 33.6077 15.5324 33.545 15.5105H33.4799C33.1439 15.3967 32.8513 15.2395 32.5478 15.1203L32.0981 14.9523C31.9553 14.8899 31.8063 14.8427 31.6537 14.8114C31.5074 14.7843 31.3665 14.7247 31.2202 14.6922L30.7812 14.6326C30.6404 14.6039 30.4968 14.5911 30.3531 14.5947C30.2089 14.5811 30.0638 14.5811 29.9196 14.5947C29.3253 14.6258 28.7398 14.752 28.1855 14.9686C27.5892 15.2098 27.013 15.4979 26.4622 15.8302L26.4134 15.8573C26.3379 15.902 26.2496 15.9203 26.1625 15.9093C26.0753 15.8983 25.9944 15.8587 25.9323 15.7966C25.8702 15.7345 25.8305 15.6535 25.8195 15.5664C25.8085 15.4793 25.8268 15.391 25.8715 15.3154L25.8553 15.3262Z" fill="black"/>
</g>
<defs>
<filter id="filter0_d_2712_10850" x="0" y="0" width="46" height="46" filterUnits="userSpaceOnUse" color-interpolation-filters="sRGB">
<feFlood flood-opacity="0" result="BackgroundImageFix"/>
<feColorMatrix in="SourceAlpha" type="matrix" values="0 0 0 0 0 0 0 0 0 0 0 0 0 0 0 0 0 0 127 0" result="hardAlpha"/>
<feOffset dy="2"/>
<feGaussianBlur stdDeviation="4"/>
<feComposite in2="hardAlpha" operator="out"/>
<feColorMatrix type="matrix" values="0 0 0 0 0 0 0 0 0 0 0 0 0 0 0 0 0 0 0.15 0"/>
<feBlend mode="normal" in2="BackgroundImageFix" result="effect1_dropShadow_2712_10850"/>
<feBlend mode="normal" in="SourceGraphic" in2="effect1_dropShadow_2712_10850" result="shape"/>
</filter>
</defs>
</svg>
