<svg width="45" height="50" viewBox="0 0 46 46" fill="none" xmlns="http://www.w3.org/2000/svg">
<g filter="url(#filter0_d_2712_10873)">
<path d="M23 36C31.2843 36 38 29.2843 38 21C38 12.7157 31.2843 6 23 6C14.7157 6 8 12.7157 8 21C8 29.2843 14.7157 36 23 36Z" fill="#FCCE65"/>
<path d="M22.9986 35.1281C30.801 35.1281 37.1262 28.803 37.1262 21.0006C37.1262 13.1982 30.801 6.87305 22.9986 6.87305C15.1962 6.87305 8.87109 13.1982 8.87109 21.0006C8.87109 28.803 15.1962 35.1281 22.9986 35.1281Z" fill="#FFE59D"/>
<path d="M34.6585 14.3882C34.3835 13.9572 34.0578 13.5605 33.6885 13.2069C33.3511 12.8845 32.9558 12.6289 32.5234 12.4536C32.113 12.2906 31.6752 12.2078 31.2336 12.2098C31.0038 12.2075 30.774 12.2183 30.5454 12.2423C30.3124 12.2423 30.0739 12.329 29.8247 12.3507H29.6729C29.4755 12.3489 29.2846 12.279 29.1328 12.1527C28.981 12.0264 28.8775 11.8515 28.8399 11.6576C28.8023 11.4638 28.8328 11.2628 28.9264 11.0889C29.0199 10.915 29.1707 10.7788 29.3532 10.7033C29.664 10.6041 29.9808 10.5245 30.3015 10.4648C30.633 10.4131 30.9691 10.3967 31.3041 10.4161C32.0062 10.4342 32.6923 10.63 33.2983 10.9851C33.879 11.331 34.3708 11.8079 34.7344 12.3778C35.0838 12.9165 35.3181 13.5217 35.4226 14.1552C35.4355 14.2441 35.4179 14.3348 35.3725 14.4123C35.3271 14.4898 35.2566 14.5496 35.1728 14.5817C35.0889 14.6139 34.9966 14.6166 34.911 14.5893C34.8254 14.562 34.7516 14.5064 34.7018 14.4316L34.6585 14.3882Z" fill="#330B06"/>
<path d="M10.4821 14.3174C10.5538 13.6777 10.7567 13.0597 11.0782 12.5021C11.4086 11.9118 11.8726 11.407 12.433 11.0281C13.01 10.6385 13.6748 10.3983 14.3676 10.329C14.7028 10.2966 15.0403 10.2966 15.3755 10.329C15.6983 10.3732 16.0185 10.4347 16.3347 10.5133C16.5423 10.5604 16.725 10.6832 16.8469 10.8577C16.9689 11.0322 17.0215 11.2459 16.9944 11.4571C16.9674 11.6683 16.8626 11.8618 16.7005 11.9999C16.5385 12.138 16.3308 12.2108 16.1179 12.204H15.9554C15.7061 12.204 15.4677 12.1444 15.2292 12.139C15 12.1254 14.7702 12.1254 14.541 12.139C14.0998 12.1623 13.6674 12.2709 13.2675 12.4587C12.8527 12.6602 12.478 12.9357 12.162 13.2716C11.8083 13.6412 11.5008 14.0525 11.2462 14.4963L11.2191 14.545C11.1742 14.6233 11.1038 14.6838 11.0197 14.7166C10.9356 14.7494 10.8429 14.7524 10.7568 14.7252C10.6708 14.698 10.5966 14.6422 10.5466 14.567C10.4967 14.4919 10.4739 14.4019 10.4821 14.312V14.3174Z" fill="#330B06"/>
<path d="M15.6905 21.135C17.8604 21.135 19.6194 19.376 19.6194 17.2062C19.6194 15.0363 17.8604 13.2773 15.6905 13.2773C13.5207 13.2773 11.7617 15.0363 11.7617 17.2062C11.7617 19.376 13.5207 21.135 15.6905 21.135Z" fill="white"/>
<path d="M15.6884 19.0701C16.7179 19.0701 17.5525 18.2355 17.5525 17.206C17.5525 16.1764 16.7179 15.3418 15.6884 15.3418C14.6588 15.3418 13.8242 16.1764 13.8242 17.206C13.8242 18.2355 14.6588 19.0701 15.6884 19.0701Z" fill="black"/>
<path d="M16.9894 16.469C17.3006 16.469 17.5529 16.2166 17.5529 15.9054C17.5529 15.5941 17.3006 15.3418 16.9894 15.3418C16.6781 15.3418 16.4258 15.5941 16.4258 15.9054C16.4258 16.2166 16.6781 16.469 16.9894 16.469Z" fill="white"/>
<path d="M14.9188 18.6854C15.4306 18.6854 15.8455 18.2705 15.8455 17.7587C15.8455 17.2469 15.4306 16.832 14.9188 16.832C14.4071 16.832 13.9922 17.2469 13.9922 17.7587C13.9922 18.2705 14.4071 18.6854 14.9188 18.6854Z" fill="white"/>
<path d="M30.046 21.135C32.2158 21.135 33.9748 19.376 33.9748 17.2062C33.9748 15.0363 32.2158 13.2773 30.046 13.2773C27.8762 13.2773 26.1172 15.0363 26.1172 17.2062C26.1172 19.376 27.8762 21.135 30.046 21.135Z" fill="white"/>
<path d="M30.0438 19.0701C31.0734 19.0701 31.908 18.2355 31.908 17.206C31.908 16.1764 31.0734 15.3418 30.0438 15.3418C29.0143 15.3418 28.1797 16.1764 28.1797 17.206C28.1797 18.2355 29.0143 19.0701 30.0438 19.0701Z" fill="black"/>
<path d="M31.3448 16.469C31.6561 16.469 31.9084 16.2166 31.9084 15.9054C31.9084 15.5941 31.6561 15.3418 31.3448 15.3418C31.0336 15.3418 30.7812 15.5941 30.7812 15.9054C30.7812 16.2166 31.0336 16.469 31.3448 16.469Z" fill="white"/>
<path d="M29.2704 18.6854C29.7822 18.6854 30.1971 18.2705 30.1971 17.7587C30.1971 17.2469 29.7822 16.832 29.2704 16.832C28.7586 16.832 28.3438 17.2469 28.3438 17.7587C28.3438 18.2705 28.7586 18.6854 29.2704 18.6854Z" fill="white"/>
<path d="M25.5384 24.7279C25.385 24.7252 25.2343 24.6871 25.098 24.6166C24.9617 24.5461 24.8435 24.4451 24.7527 24.3215C24.7077 24.2313 24.6385 24.1554 24.5528 24.1024C24.4672 24.0494 24.3684 24.0213 24.2677 24.0213C24.1669 24.0213 24.0681 24.0494 23.9825 24.1024C23.8968 24.1554 23.8276 24.2313 23.7826 24.3215C23.6918 24.4451 23.5736 24.5461 23.4373 24.6166C23.301 24.6871 23.1503 24.7252 22.9969 24.7279C22.8442 24.7252 22.6943 24.6871 22.5589 24.6165C22.4235 24.546 22.3063 24.445 22.2165 24.3215C22.0648 24.1643 21.9564 24.0451 21.7288 24.0451C21.6324 24.0503 21.5386 24.078 21.4548 24.126C21.3711 24.174 21.2997 24.2409 21.2465 24.3215C21.1579 24.4467 21.0406 24.5489 20.9043 24.6194C20.7681 24.6899 20.6169 24.7267 20.4635 24.7267C20.31 24.7267 20.1589 24.6899 20.0226 24.6194C19.8864 24.5489 19.769 24.4467 19.6804 24.3215C19.5287 24.1643 19.4257 24.0451 19.1981 24.0451C19.1713 24.0458 19.1447 24.0412 19.1197 24.0314C19.0948 24.0217 19.072 24.007 19.0528 23.9883C19.0336 23.9696 19.0184 23.9473 19.008 23.9226C18.9975 23.8979 18.9922 23.8714 18.9922 23.8446C18.9922 23.8176 18.9975 23.7908 19.0079 23.7658C19.0182 23.7408 19.0334 23.7181 19.0525 23.699C19.0716 23.6799 19.0943 23.6647 19.1193 23.6543C19.1443 23.644 19.1711 23.6387 19.1981 23.6387C19.3507 23.6418 19.5005 23.6801 19.6358 23.7506C19.7712 23.8211 19.8884 23.9219 19.9785 24.0451C20.1302 24.2023 20.2332 24.3215 20.4608 24.3215C20.6884 24.3215 20.7967 24.2023 20.9485 24.0451C21.0382 23.9216 21.1554 23.8206 21.2908 23.75C21.4262 23.6795 21.5762 23.6414 21.7288 23.6387C21.8822 23.6414 22.033 23.6795 22.1692 23.75C22.3055 23.8205 22.4237 23.9215 22.5146 24.0451C22.5678 24.1256 22.6391 24.1926 22.7229 24.2406C22.8067 24.2886 22.9005 24.3163 22.9969 24.3215C23.2299 24.3215 23.3329 24.2023 23.4846 24.0451C23.5732 23.9199 23.6906 23.8177 23.8268 23.7472C23.9631 23.6767 24.1142 23.6399 24.2677 23.6399C24.4211 23.6399 24.5723 23.6767 24.7085 23.7472C24.8448 23.8177 24.9621 23.9199 25.0507 24.0451C25.2024 24.2023 25.3108 24.3215 25.5384 24.3215C25.766 24.3215 25.8744 24.2023 26.0261 24.0451C26.1148 23.923 26.2302 23.8229 26.3637 23.7524C26.4971 23.682 26.6448 23.643 26.7957 23.6387C26.8227 23.6387 26.8495 23.644 26.8745 23.6543C26.8994 23.6647 26.9221 23.6799 26.9413 23.699C26.9604 23.7181 26.9756 23.7408 26.9859 23.7658C26.9963 23.7908 27.0016 23.8176 27.0016 23.8446C27.0016 23.8714 26.9962 23.8979 26.9858 23.9226C26.9754 23.9473 26.9601 23.9696 26.941 23.9883C26.9218 24.007 26.899 24.0217 26.8741 24.0314C26.8491 24.0412 26.8224 24.0458 26.7957 24.0451C26.6993 24.0503 26.6054 24.078 26.5217 24.126C26.4379 24.174 26.3666 24.2409 26.3134 24.3215C26.2236 24.4437 26.1071 24.5438 25.9729 24.6142C25.8386 24.6847 25.69 24.7235 25.5384 24.7279Z" fill="#800F03"/>
<path d="M25.5359 24.9991C25.3457 24.9968 25.1585 24.9512 24.9886 24.8658C24.8186 24.7803 24.6704 24.6573 24.5551 24.506C24.4033 24.3488 24.3654 24.3163 24.2624 24.3163C24.1595 24.3163 24.127 24.3488 23.9807 24.506C23.8661 24.6585 23.7175 24.7823 23.5468 24.8676C23.3761 24.9529 23.1879 24.9973 22.9971 24.9973C22.8063 24.9973 22.6181 24.9529 22.4474 24.8676C22.2767 24.7823 22.1281 24.6585 22.0135 24.506C21.8672 24.3488 21.8293 24.3163 21.7263 24.3163C21.6234 24.3163 21.5908 24.3488 21.4391 24.506C21.3238 24.6573 21.1756 24.7803 21.0056 24.8658C20.8357 24.9512 20.6485 24.9968 20.4583 24.9991C20.2683 24.9952 20.0817 24.949 19.912 24.8636C19.7422 24.7783 19.5938 24.6561 19.4774 24.506C19.3311 24.3488 19.2932 24.3163 19.1956 24.3163C19.1291 24.3234 19.0618 24.3164 18.9981 24.2959C18.9345 24.2753 18.8759 24.2415 18.8261 24.1968C18.7763 24.1521 18.7365 24.0974 18.7093 24.0363C18.682 23.9752 18.668 23.909 18.668 23.8421C18.668 23.7752 18.682 23.709 18.7093 23.6479C18.7365 23.5868 18.7763 23.5321 18.8261 23.4874C18.8759 23.4427 18.9345 23.4089 18.9981 23.3884C19.0618 23.3678 19.1291 23.3608 19.1956 23.3679C19.3855 23.3718 19.5722 23.4181 19.7419 23.5034C19.9116 23.5887 20.0601 23.7109 20.1765 23.8611C20.3228 24.0182 20.3607 24.0507 20.4583 24.0507C20.5558 24.0507 20.5992 24.0182 20.7455 23.8611C20.8601 23.7085 21.0086 23.5847 21.1793 23.4994C21.35 23.4141 21.5382 23.3698 21.729 23.3698C21.9198 23.3698 22.1081 23.4141 22.2788 23.4994C22.4495 23.5847 22.598 23.7085 22.7126 23.8611C22.8589 24.0182 22.8968 24.0507 22.9944 24.0507C23.0919 24.0507 23.1353 24.0182 23.2816 23.8611C23.3962 23.7085 23.5447 23.5847 23.7154 23.4994C23.8861 23.4141 24.0743 23.3698 24.2652 23.3698C24.456 23.3698 24.6442 23.4141 24.8149 23.4994C24.9856 23.5847 25.1341 23.7085 25.2487 23.8611C25.395 24.0182 25.433 24.0507 25.5359 24.0507C25.6389 24.0507 25.6768 24.0182 25.8231 23.8611C25.9378 23.7118 26.0845 23.59 26.2523 23.5047C26.4201 23.4193 26.6049 23.3726 26.7932 23.3679C26.8597 23.3608 26.927 23.3678 26.9906 23.3884C27.0543 23.4089 27.1129 23.4427 27.1627 23.4874C27.2124 23.5321 27.2522 23.5868 27.2795 23.6479C27.3067 23.709 27.3208 23.7752 27.3208 23.8421C27.3208 23.909 27.3067 23.9752 27.2795 24.0363C27.2522 24.0974 27.2124 24.1521 27.1627 24.1968C27.1129 24.2415 27.0543 24.2753 26.9906 24.2959C26.927 24.3164 26.8597 24.3234 26.7932 24.3163C26.6902 24.3163 26.6577 24.3488 26.5059 24.506C26.3913 24.6553 26.2446 24.7771 26.0768 24.8624C25.9089 24.9477 25.7242 24.9944 25.5359 24.9991Z" fill="#702E09"/>
<path d="M13.2461 26.18C13.2461 26.8656 13.5184 27.5231 14.0032 28.0078C14.488 28.4926 15.1454 28.7649 15.831 28.7649C16.5166 28.7649 17.174 28.4926 17.6588 28.0078C18.1436 27.5231 18.4159 26.8656 18.4159 26.18C18.4159 25.0962 16.8823 23.2483 16.1778 21.3787C16.1522 21.3073 16.1051 21.2455 16.043 21.2019C15.9809 21.1582 15.9069 21.1348 15.831 21.1348C15.7551 21.1348 15.681 21.1582 15.619 21.2019C15.5569 21.2455 15.5098 21.3073 15.4842 21.3787C14.7905 23.2483 13.2461 25.08 13.2461 26.18Z" fill="#6FB8DE"/>
<g opacity="0.6">
<path opacity="0.6" d="M14.332 25.7158C14.4158 25.1612 14.5556 24.6165 14.7493 24.0901C14.9322 23.5468 15.2276 23.0483 15.6164 22.627C15.3219 23.0846 15.1228 23.597 15.0311 24.1335C14.9337 24.6697 14.8883 25.2142 14.8956 25.7592C14.8956 25.831 14.8671 25.9 14.8163 25.9508C14.7654 26.0016 14.6965 26.0301 14.6247 26.0301C14.5528 26.0301 14.4839 26.0016 14.4331 25.9508C14.3823 25.9 14.3537 25.831 14.3537 25.7592L14.332 25.7158Z" fill="white"/>
</g>
</g>
<defs>
<filter id="filter0_d_2712_10873" x="0" y="0" width="46" height="46" filterUnits="userSpaceOnUse" color-interpolation-filters="sRGB">
<feFlood flood-opacity="0" result="BackgroundImageFix"/>
<feColorMatrix in="SourceAlpha" type="matrix" values="0 0 0 0 0 0 0 0 0 0 0 0 0 0 0 0 0 0 127 0" result="hardAlpha"/>
<feOffset dy="2"/>
<feGaussianBlur stdDeviation="4"/>
<feComposite in2="hardAlpha" operator="out"/>
<feColorMatrix type="matrix" values="0 0 0 0 0 0 0 0 0 0 0 0 0 0 0 0 0 0 0.15 0"/>
<feBlend mode="normal" in2="BackgroundImageFix" result="effect1_dropShadow_2712_10873"/>
<feBlend mode="normal" in="SourceGraphic" in2="effect1_dropShadow_2712_10873" result="shape"/>
</filter>
</defs>
</svg>
