<svg width="45" height="50" viewBox="0 0 46 46" fill="none" xmlns="http://www.w3.org/2000/svg">
<g filter="url(#filter0_d_2712_10929)">
<path d="M23 36C31.2843 36 38 29.2843 38 21C38 12.7157 31.2843 6 23 6C14.7157 6 8 12.7157 8 21C8 29.2843 14.7157 36 23 36Z" fill="#FCCE65"/>
<path d="M22.9986 35.1281C30.801 35.1281 37.1262 28.803 37.1262 21.0006C37.1262 13.1982 30.801 6.87305 22.9986 6.87305C15.1962 6.87305 8.87109 13.1982 8.87109 21.0006C8.87109 28.803 15.1962 35.1281 22.9986 35.1281Z" fill="#FFE59D"/>
<path d="M10.321 18.9134C10.8712 19.2467 11.4475 19.5349 12.0443 19.775C12.5997 19.9941 13.1874 20.1204 13.7838 20.1489C13.9262 20.1625 14.0695 20.1625 14.2119 20.1489C14.3571 20.1518 14.5023 20.1409 14.6454 20.1164C14.7863 20.0893 14.9326 20.0731 15.0844 20.0514C15.2361 20.0297 15.3662 19.9647 15.5179 19.9322C15.6705 19.9009 15.8195 19.8537 15.9623 19.7913L16.412 19.6287C16.7155 19.5095 17.0027 19.3469 17.3441 19.2331H17.4092C17.5083 19.2005 17.6164 19.2083 17.7098 19.255C17.8032 19.3017 17.8743 19.3835 17.9077 19.4824C17.9286 19.5452 17.9336 19.6123 17.9222 19.6775C17.9109 19.7428 17.8836 19.8042 17.8427 19.8563C17.5993 20.1516 17.331 20.4253 17.0407 20.6746C16.7381 20.9271 16.4071 21.1435 16.0544 21.3195C15.3193 21.6978 14.4949 21.8683 13.67 21.8126C12.8504 21.7667 12.056 21.5131 11.3615 21.0756C10.6958 20.6735 10.1378 20.1156 9.73575 19.4499C9.68202 19.36 9.66611 19.2525 9.6915 19.1509C9.71689 19.0493 9.78152 18.962 9.87123 18.908C9.93301 18.8723 10.0031 18.8535 10.0744 18.8535C10.1458 18.8535 10.2159 18.8723 10.2777 18.908L10.321 18.9134Z" fill="black"/>
<path d="M35.713 19.4289C35.292 20.1122 34.7138 20.685 34.0267 21.0998C33.3395 21.5145 32.5633 21.7591 31.7625 21.8133C30.9358 21.8697 30.1095 21.6992 29.3727 21.3201C29.02 21.1442 28.689 20.9278 28.3864 20.6753C28.1027 20.4182 27.8416 20.1372 27.6061 19.8353C27.5452 19.7539 27.5181 19.6522 27.5302 19.5513C27.5423 19.4505 27.5927 19.3581 27.6711 19.2934C27.7217 19.2516 27.7822 19.2237 27.8468 19.2123C27.9114 19.2009 27.9778 19.2064 28.0396 19.2284H28.1046C28.446 19.3422 28.7332 19.5047 29.0367 19.624L29.4865 19.7865C29.6293 19.8489 29.7782 19.8961 29.9309 19.9274C30.0826 19.96 30.2235 20.0141 30.3698 20.0467C30.5161 20.0792 30.6624 20.0846 30.8033 20.1117C30.9465 20.1362 31.0916 20.1471 31.2369 20.1442C31.3792 20.1577 31.5226 20.1577 31.665 20.1442C32.2614 20.1163 32.8492 19.9899 33.4045 19.7703C34.0013 19.5302 34.5776 19.242 35.1277 18.9087H35.1711C35.2467 18.8639 35.335 18.8456 35.4221 18.8566C35.5092 18.8676 35.5902 18.9073 35.6523 18.9694C35.7144 19.0315 35.754 19.1125 35.765 19.1996C35.776 19.2867 35.7577 19.375 35.713 19.4506V19.4289Z" fill="black"/>
<path d="M11.2075 14.0803C11.6287 13.396 12.2076 12.8224 12.8958 12.4076C13.5841 11.9928 14.3616 11.7488 15.1634 11.6959C15.9883 11.6401 16.8127 11.8107 17.5478 12.189C17.9003 12.3681 18.2328 12.5843 18.5395 12.8339C18.8218 13.0944 19.0827 13.377 19.3198 13.6793C19.3807 13.7607 19.4079 13.8623 19.3957 13.9632C19.3836 14.0641 19.3332 14.1565 19.2548 14.2212C19.2032 14.2629 19.1417 14.2908 19.0763 14.3022C19.0109 14.3136 18.9436 14.3081 18.8809 14.2862H18.8159C18.4799 14.1724 18.1872 14.0152 17.8838 13.896L17.434 13.728C17.2912 13.6657 17.1423 13.6184 16.9896 13.5871C16.8433 13.56 16.7024 13.5058 16.5561 13.4679L16.1172 13.4137C15.9745 13.3848 15.8291 13.372 15.6836 13.3758C15.5413 13.3622 15.3979 13.3622 15.2555 13.3758C14.6595 13.4074 14.0724 13.5337 13.516 13.7497C12.922 13.9921 12.3476 14.2802 11.7982 14.6113L11.7494 14.6384C11.6738 14.6832 11.5855 14.7015 11.4984 14.6905C11.4113 14.6795 11.3303 14.6398 11.2682 14.5777C11.2061 14.5156 11.1665 14.4346 11.1555 14.3475C11.1445 14.2604 11.1628 14.1721 11.2075 14.0965V14.0803Z" fill="#330B06"/>
<path d="M33.559 14.5953C33.0083 14.263 32.432 13.9749 31.8358 13.7336C31.2814 13.5171 30.696 13.3908 30.1017 13.3597C29.9575 13.3462 29.8123 13.3462 29.6681 13.3597C29.5227 13.3564 29.3773 13.3692 29.2346 13.3977L28.8011 13.4573C28.6548 13.4952 28.5139 13.5494 28.3621 13.5765C28.2112 13.6077 28.0641 13.655 27.9232 13.7174L27.4734 13.8854C27.1699 14.0046 26.8773 14.1617 26.5413 14.2755H26.4763C26.4269 14.2925 26.3745 14.2996 26.3224 14.2962C26.2702 14.2929 26.2192 14.2792 26.1723 14.256C26.1255 14.2328 26.0837 14.2006 26.0493 14.1612C26.015 14.1217 25.9888 14.0759 25.9723 14.0263C25.9524 13.9642 25.9479 13.8982 25.9592 13.834C25.9706 13.7698 25.9974 13.7093 26.0374 13.6578C26.2729 13.3543 26.534 13.0714 26.8177 12.8124C27.1227 12.5604 27.4554 12.3441 27.8094 12.1675C28.5445 11.7892 29.3689 11.6187 30.1938 11.6744C30.9951 11.7295 31.7717 11.9744 32.4596 12.389C33.1475 12.8036 33.7268 13.376 34.1497 14.0588C34.1944 14.1344 34.2127 14.2227 34.2017 14.3098C34.1907 14.3969 34.1511 14.4779 34.089 14.54C34.0269 14.6021 33.9459 14.6417 33.8588 14.6527C33.7717 14.6637 33.6834 14.6454 33.6078 14.6007L33.559 14.5953Z" fill="#330B06"/>
<path d="M22.6967 26.6631C24.6686 26.6476 26.6296 26.3688 28.5276 25.834C28.6878 25.8531 28.8342 25.934 28.9354 26.0596C29.0367 26.1852 29.0848 26.3454 29.0695 26.506C29.0664 26.6655 29.0112 26.8196 28.9124 26.9449C28.1049 27.8987 26.2408 29.6544 22.6696 29.6544C21.4973 29.6973 20.3308 29.4698 19.2605 28.9896C18.1902 28.5094 17.2447 27.7894 16.4973 26.8853C16.4054 26.7687 16.3555 26.6246 16.3555 26.4761C16.3555 26.3277 16.4054 26.1836 16.4973 26.067C16.5367 26.0178 16.586 25.9774 16.642 25.9484C16.698 25.9195 16.7595 25.9027 16.8224 25.899C18.743 26.3873 20.7151 26.6438 22.6967 26.6631Z" fill="#702E09"/>
<path d="M26.6735 28.321C26.6735 29.0417 24.8852 29.627 22.6796 29.627C20.474 29.627 18.6641 29.0417 18.6641 28.321C18.6641 27.6002 20.4524 27.6978 22.6633 27.6978C24.8743 27.6978 26.6735 27.6002 26.6735 28.321Z" fill="#F28876"/>
<path d="M18.1992 26.2136C19.686 26.4546 21.191 26.5652 22.6971 26.5442C24.3356 26.5847 25.973 26.4282 27.5742 26.0781V26.4195C27.575 26.4952 27.5606 26.5702 27.532 26.6402C27.5034 26.7102 27.4611 26.7738 27.4076 26.8273C27.3541 26.8808 27.2905 26.9231 27.2205 26.9517C27.1505 26.9803 27.0755 26.9947 26.9998 26.994H18.7737C18.698 26.9947 18.623 26.9803 18.553 26.9517C18.483 26.9231 18.4194 26.8808 18.3659 26.8273C18.3124 26.7738 18.2701 26.7102 18.2415 26.6402C18.2129 26.5702 18.1985 26.4952 18.1992 26.4195V26.2136Z" fill="white"/>
</g>
<defs>
<filter id="filter0_d_2712_10929" x="0" y="0" width="46" height="46" filterUnits="userSpaceOnUse" color-interpolation-filters="sRGB">
<feFlood flood-opacity="0" result="BackgroundImageFix"/>
<feColorMatrix in="SourceAlpha" type="matrix" values="0 0 0 0 0 0 0 0 0 0 0 0 0 0 0 0 0 0 127 0" result="hardAlpha"/>
<feOffset dy="2"/>
<feGaussianBlur stdDeviation="4"/>
<feComposite in2="hardAlpha" operator="out"/>
<feColorMatrix type="matrix" values="0 0 0 0 0 0 0 0 0 0 0 0 0 0 0 0 0 0 0.15 0"/>
<feBlend mode="normal" in2="BackgroundImageFix" result="effect1_dropShadow_2712_10929"/>
<feBlend mode="normal" in="SourceGraphic" in2="effect1_dropShadow_2712_10929" result="shape"/>
</filter>
</defs>
</svg>
