<svg width="45" height="50" viewBox="0 0 46 46" fill="none" xmlns="http://www.w3.org/2000/svg">
<g filter="url(#filter0_d_2712_10941)">
<path d="M25 36C33.2843 36 40 29.2843 40 21C40 12.7157 33.2843 6 25 6C16.7157 6 10 12.7157 10 21C10 29.2843 16.7157 36 25 36Z" fill="#FCCE65"/>
<path d="M24.9986 35.1262C32.801 35.1262 39.1262 28.801 39.1262 20.9986C39.1262 13.1962 32.801 6.87109 24.9986 6.87109C17.1962 6.87109 10.8711 13.1962 10.8711 20.9986C10.8711 28.801 17.1962 35.1262 24.9986 35.1262Z" fill="#FFE59D"/>
<path d="M14.3309 19.4409C14.8822 19.7721 15.4583 20.0602 16.0541 20.3025C16.6085 20.519 17.1939 20.6453 17.7882 20.6764C17.9324 20.6899 18.0776 20.6899 18.2218 20.6764C18.3672 20.6775 18.5123 20.6648 18.6553 20.6385C18.7962 20.6385 18.9425 20.5951 19.0888 20.5734C19.2351 20.5518 19.376 20.4867 19.5278 20.4542C19.6817 20.4279 19.8312 20.3805 19.9721 20.3133L20.4219 20.1508C20.7254 20.0315 21.0126 19.869 21.354 19.7552H21.419C21.4685 19.7391 21.5206 19.733 21.5725 19.7371C21.6243 19.7412 21.6748 19.7555 21.7211 19.7792C21.7674 19.8028 21.8086 19.8354 21.8423 19.8749C21.876 19.9145 21.9016 19.9604 21.9176 20.0099C21.939 20.0717 21.9443 20.1381 21.9329 20.2025C21.9215 20.267 21.8939 20.3275 21.8526 20.3784C21.6199 20.6826 21.3585 20.9639 21.0722 21.2183C20.771 21.4727 20.4398 21.6893 20.0859 21.8632C19.3503 22.246 18.5234 22.4185 17.6961 22.3617C16.8954 22.3076 16.1191 22.063 15.432 21.6482C14.7448 21.2335 14.1667 20.6606 13.7456 19.9773C13.7183 19.933 13.7001 19.8837 13.6921 19.8323C13.6841 19.7809 13.6865 19.7283 13.6991 19.6778C13.7118 19.6273 13.7344 19.5799 13.7656 19.5382C13.7969 19.4966 13.8361 19.4617 13.8811 19.4354C13.9419 19.3997 14.0111 19.3809 14.0816 19.3809C14.1521 19.3809 14.2213 19.3997 14.2821 19.4354L14.3309 19.4409Z" fill="black"/>
<path d="M37.0177 19.955C36.5965 20.6393 36.0175 21.2128 35.3293 21.6276C34.6411 22.0424 33.8636 22.2865 33.0618 22.3393C32.2362 22.3959 31.4111 22.2234 30.6774 21.8408C30.3236 21.6669 29.9923 21.4503 29.6911 21.1959C29.4048 20.9415 29.1435 20.6602 28.9108 20.356C28.8499 20.2746 28.8227 20.1729 28.8349 20.072C28.847 19.9711 28.8974 19.8787 28.9758 19.8141C29.0277 19.7749 29.0882 19.7486 29.1522 19.7373C29.2163 19.726 29.2821 19.73 29.3443 19.749H29.4093C29.7507 19.8628 30.0379 20.0254 30.3414 20.1446L30.7912 20.3072C30.9321 20.3744 31.0816 20.4218 31.2355 20.4481C31.3873 20.4806 31.5282 20.5348 31.6691 20.5673L32.108 20.6323C32.251 20.6586 32.3962 20.6713 32.5415 20.6703C32.6839 20.6838 32.8273 20.6838 32.9696 20.6703C33.5657 20.6392 34.153 20.5129 34.7092 20.2964C35.305 20.054 35.8811 19.766 36.4324 19.4347L36.4758 19.4076C36.5657 19.3539 36.6732 19.338 36.7747 19.3634C36.8763 19.3888 36.9637 19.4534 37.0177 19.5431C37.0549 19.6053 37.0746 19.6765 37.0746 19.749C37.0746 19.8216 37.0549 19.8927 37.0177 19.955Z" fill="black"/>
<path d="M35.17 16.508C34.7031 16.8354 34.1706 17.0573 33.6093 17.1582C33.0153 17.2742 32.4021 17.2463 31.821 17.077C31.2176 16.8994 30.6693 16.5711 30.2278 16.1232C30.0097 15.9159 29.8152 15.6851 29.648 15.435C29.4938 15.1897 29.3562 14.9345 29.2361 14.6709C29.1457 14.4819 29.1278 14.2663 29.1857 14.065C29.2435 13.8637 29.3732 13.6906 29.5501 13.5784C29.727 13.4662 29.9389 13.4228 30.1457 13.4564C30.3525 13.4899 30.5398 13.5981 30.6722 13.7605L30.7751 13.8851C30.9106 14.0477 31.0081 14.2374 31.1328 14.3945C31.2474 14.5525 31.3723 14.7027 31.5067 14.8443C31.7531 15.1202 32.0514 15.3448 32.3846 15.5054C32.7385 15.6827 33.1228 15.7912 33.5172 15.8252C33.9562 15.8612 34.3978 15.8485 34.834 15.7872H34.8936C34.981 15.7767 35.0693 15.7956 35.1447 15.8409C35.2201 15.8862 35.2783 15.9553 35.31 16.0374C35.3417 16.1195 35.3452 16.2097 35.3198 16.294C35.2944 16.3782 35.2417 16.4516 35.17 16.5025V16.508Z" fill="#330B06"/>
<path d="M16.6506 15.8578C17.085 15.919 17.5249 15.9317 17.962 15.8958C18.3562 15.8642 18.7406 15.7575 19.0946 15.5815C19.4278 15.4208 19.7261 15.1962 19.9725 14.9203C20.1069 14.7788 20.2318 14.6285 20.3464 14.4706C20.4711 14.3134 20.5686 14.1237 20.7041 13.9612L20.8071 13.8365C20.8784 13.7491 20.9663 13.6766 21.0657 13.6232C21.1652 13.5699 21.2742 13.5367 21.3865 13.5256C21.4988 13.5145 21.6122 13.5258 21.7201 13.5587C21.8281 13.5916 21.9285 13.6455 22.0155 13.7173C22.163 13.8388 22.266 14.0059 22.3082 14.1922C22.3504 14.3786 22.3294 14.5738 22.2485 14.7469C22.1241 15.0083 21.9866 15.2634 21.8367 15.511C21.6661 15.7587 21.4719 15.9891 21.2568 16.1992C20.8126 16.6402 20.2648 16.9625 19.6636 17.1367C19.0826 17.3061 18.4694 17.334 17.8753 17.218C17.3198 17.1116 16.7933 16.8881 16.3309 16.5623C16.2463 16.5032 16.1885 16.4131 16.1702 16.3115C16.152 16.2099 16.1747 16.1053 16.2334 16.0204C16.2748 15.9614 16.3314 15.9146 16.3972 15.885C16.463 15.8555 16.5356 15.8442 16.6073 15.8524L16.6506 15.8578Z" fill="#330B06"/>
<path d="M25.0011 28.9991C22.8842 29.0327 20.7904 29.4438 18.8179 30.213C18.7161 30.255 18.6056 30.2718 18.4959 30.2619C18.3861 30.252 18.2804 30.2156 18.1878 30.156C18.0952 30.0964 18.0183 30.0152 17.9639 29.9194C17.9094 29.8237 17.8789 29.7162 17.875 29.6061C17.8767 29.4278 17.9399 29.2555 18.0538 29.1183C18.9534 28.0345 21.0397 24.3008 25.039 24.3008C29.0383 24.3008 31 28.0941 31.9646 29.1779C32.0698 29.3074 32.1272 29.4691 32.1272 29.6359C32.1272 29.8026 32.0698 29.9643 31.9646 30.0938C31.873 30.2021 31.7427 30.2702 31.6015 30.2834C29.4929 29.4744 27.2592 29.0398 25.0011 28.9991Z" fill="#702E09"/>
<path d="M24.9996 26.6895C23.1951 26.6895 22.16 28.0605 21.629 28.6999C21.5843 28.7565 21.5574 28.8251 21.5519 28.897C21.5463 28.9689 21.5623 29.0408 21.5977 29.1036C21.6332 29.1663 21.6865 29.2171 21.751 29.2495C21.8154 29.2818 21.888 29.2943 21.9595 29.2852C22.9639 29.1055 23.9799 28.9987 24.9996 28.9655C26.0193 28.9992 27.0353 29.1061 28.0397 29.2852C28.1112 29.2943 28.1838 29.2818 28.2483 29.2495C28.3127 29.2171 28.3661 29.1663 28.4015 29.1036C28.437 29.0408 28.4529 28.9689 28.4474 28.897C28.4418 28.8251 28.415 28.7565 28.3703 28.6999C27.8392 28.0442 26.8096 26.6895 24.9996 26.6895Z" fill="#EE808A"/>
<path d="M21.6055 25.3366H28.4335C27.4254 24.6552 26.2363 24.291 25.0195 24.291C23.8026 24.291 22.6136 24.6552 21.6055 25.3366Z" fill="white"/>
</g>
<defs>
<filter id="filter0_d_2712_10941" x="0" y="0" width="50" height="50" filterUnits="userSpaceOnUse" color-interpolation-filters="sRGB">
<feFlood flood-opacity="0" result="BackgroundImageFix"/>
<feColorMatrix in="SourceAlpha" type="matrix" values="0 0 0 0 0 0 0 0 0 0 0 0 0 0 0 0 0 0 127 0" result="hardAlpha"/>
<feOffset dy="4"/>
<feGaussianBlur stdDeviation="5"/>
<feComposite in2="hardAlpha" operator="out"/>
<feColorMatrix type="matrix" values="0 0 0 0 0.909804 0 0 0 0 0.568627 0 0 0 0 0.2 0 0 0 0.7 0"/>
<feBlend mode="normal" in2="BackgroundImageFix" result="effect1_dropShadow_2712_10941"/>
<feBlend mode="normal" in="SourceGraphic" in2="effect1_dropShadow_2712_10941" result="shape"/>
</filter>
</defs>
</svg>
